<svg xmlns="http://www.w3.org/2000/svg" width="16" height="16" viewBox="0 0 128 128">
  <defs>
    <linearGradient id="bg" x1="0%" y1="0%" x2="100%" y2="100%">
      <stop offset="0%" style="stop-color:#6366f1"/>
      <stop offset="100%" style="stop-color:#8b5cf6"/>
    </linearGradient>
    <linearGradient id="shine" x1="0%" y1="0%" x2="100%" y2="100%">
      <stop offset="0%" style="stop-color:rgba(255,255,255,0.2)"/>
      <stop offset="100%" style="stop-color:rgba(255,255,255,0)"/>
    </linearGradient>
  </defs>
  <!-- Background -->
  <rect width="128" height="128" rx="24" fill="url(#bg)"/>
  <rect width="128" height="128" rx="24" fill="url(#shine)"/>
  <!-- Document -->
  <path d="M38 22h32l20 20v64a4 4 0 01-4 4H38a4 4 0 01-4-4V26a4 4 0 014-4z" fill="rgba(255,255,255,0.95)"/>
  <path d="M70 22l20 20H74a4 4 0 01-4-4V22z" fill="rgba(255,255,255,0.6)"/>
  <!-- Lines -->
  <rect x="44" y="52" width="36" height="3" rx="1.5" fill="#6366f1" opacity="0.3"/>
  <rect x="44" y="60" width="28" height="3" rx="1.5" fill="#6366f1" opacity="0.3"/>
  <rect x="44" y="68" width="32" height="3" rx="1.5" fill="#6366f1" opacity="0.3"/>
  <rect x="44" y="76" width="24" height="3" rx="1.5" fill="#6366f1" opacity="0.3"/>
  <rect x="44" y="84" width="30" height="3" rx="1.5" fill="#6366f1" opacity="0.3"/>
  <!-- AI Sparkle -->
  <g transform="translate(82, 70)">
    <path d="M12 0L14.5 9.5L24 12L14.5 14.5L12 24L9.5 14.5L0 12L9.5 9.5Z" fill="#fbbf24"/>
    <path d="M22 -4L23 0L27 1L23 2L22 6L21 2L17 1L21 0Z" fill="#fbbf24" opacity="0.7"/>
    <path d="M4 20L5 23L8 24L5 25L4 28L3 25L0 24L3 23Z" fill="#fbbf24" opacity="0.5"/>
  </g>
</svg>
